<svg width="10" height="20" viewBox="0 0 10 20" fill="none" xmlns="http://www.w3.org/2000/svg">
<path d="M5.27346 16.6862C5.80977 16.6527 6.28575 16.5454 6.7014 16.3644C7.11704 16.1767 7.469 15.9354 7.75727 15.6404C8.04554 15.3387 8.26341 14.9935 8.4109 14.6046C8.55839 14.2091 8.63213 13.7868 8.63213 13.3376C8.63213 12.8951 8.54833 12.5197 8.38073 12.2113C8.21313 11.9029 7.98855 11.6415 7.70699 11.427C7.42542 11.2124 7.10028 11.0348 6.73156 10.894C6.36955 10.7465 5.98743 10.6091 5.58519 10.4817L5.27346 16.6862ZM5.27346 3.79453C4.76396 3.82135 4.31815 3.91521 3.93602 4.0761C3.5606 4.23029 3.24551 4.43476 2.99077 4.68951C2.73602 4.93756 2.54495 5.22247 2.41758 5.54426C2.2902 5.86605 2.22652 6.2046 2.22652 6.55991C2.22652 6.97555 2.30026 7.33086 2.44775 7.62584C2.59523 7.92081 2.79635 8.17556 3.0511 8.39008C3.30585 8.59791 3.59747 8.77891 3.92596 8.9331C4.26116 9.08059 4.61647 9.21802 4.99189 9.3454L5.27346 3.79453ZM5.62541 9.54651C6.10139 9.70071 6.57402 9.86495 7.0433 10.0393C7.51257 10.2069 7.93157 10.4247 8.30029 10.6929C8.669 10.961 8.96733 11.2929 9.19526 11.6884C9.4232 12.084 9.53716 12.5834 9.53716 13.1868C9.53716 13.7633 9.43995 14.3063 9.24554 14.8158C9.05783 15.3253 8.77962 15.7745 8.4109 16.1633C8.04218 16.5454 7.58967 16.8538 7.05335 17.0884C6.52374 17.3231 5.91703 17.4572 5.23323 17.4907L5.12262 19.6125C5.11591 19.6996 5.08575 19.7734 5.03211 19.8337C4.98519 19.894 4.9148 19.9242 4.82094 19.9242H4.45893L4.5796 17.4907C3.72149 17.4505 2.97401 17.2661 2.33713 16.9376C1.70696 16.6091 1.15053 16.1767 0.66785 15.6404L0.93936 15.2482C1.01981 15.1477 1.11366 15.0974 1.22093 15.0974C1.28126 15.0974 1.355 15.1342 1.44216 15.208C1.52931 15.2817 1.63657 15.3756 1.76394 15.4896C1.89132 15.5968 2.04216 15.7175 2.21646 15.8516C2.39076 15.9789 2.59188 16.103 2.81981 16.2236C3.05445 16.3376 3.31926 16.4382 3.61423 16.5253C3.90921 16.6125 4.2444 16.6661 4.61982 16.6862L4.95167 10.2806C4.4958 10.1398 4.04999 9.98562 3.61423 9.81802C3.17848 9.64372 2.78965 9.42249 2.44775 9.15433C2.11255 8.87947 1.84104 8.54428 1.63322 8.14874C1.4254 7.74651 1.32148 7.24371 1.32148 6.64036C1.32148 6.17108 1.40864 5.72192 1.58294 5.29286C1.76394 4.85711 2.02205 4.47163 2.35724 4.13644C2.69914 3.79453 3.11814 3.51967 3.61423 3.31185C4.11032 3.10403 4.68016 2.99006 5.32374 2.96995L5.40418 1.29061C5.40418 1.19676 5.431 1.11966 5.48463 1.05933C5.53826 0.998993 5.60865 0.968825 5.6958 0.968825H6.05782L5.95726 2.99006C6.63436 3.03699 7.22765 3.18783 7.73715 3.44258C8.24665 3.69062 8.71258 4.02582 9.13493 4.44817L8.9137 4.79007C8.84666 4.90404 8.75615 4.96102 8.64219 4.96102C8.56174 4.96102 8.45448 4.90739 8.3204 4.80013C8.19302 4.68616 8.02207 4.56214 7.80755 4.42806C7.59972 4.28727 7.34162 4.15655 7.03324 4.03588C6.72486 3.9085 6.35279 3.82805 5.91703 3.79453L5.62541 9.54651Z" fill="#C7C7C7"/>
</svg>
