<?xml version="1.0" encoding="UTF-8"?>
<!DOCTYPE svg PUBLIC "-//W3C//DTD SVG 1.1//EN" "http://www.w3.org/Graphics/SVG/1.1/DTD/svg11.dtd">
<!-- Creator: CorelDRAW 2018 (64-Bit) -->
<svg xmlns="http://www.w3.org/2000/svg" xml:space="preserve" width="426.861mm" height="169.333mm" version="1.1" style="shape-rendering:geometricPrecision; text-rendering:geometricPrecision; image-rendering:optimizeQuality; fill-rule:evenodd; clip-rule:evenodd"
viewBox="0 0 42686.1 16933.32"
 xmlns:xlink="http://www.w3.org/1999/xlink">
 <defs>
  <style type="text/css">
   <![CDATA[
    .fil2 {fill:#FDEEE7}
    .fil0 {fill:#FDEEE7;fill-opacity:0.301961}
    .fil1 {fill:#FDEEE7;fill-opacity:0.400000}
   ]]>
  </style>
 </defs>
 <g id="Слой_x0020_1">
  <metadata id="CorelCorpID_0Corel-Layer"/>
  <path id="Rectangle_x0020_83.svg" class="fil0" d="M9323.88 2172.91l24630.62 0c438.3,0 793.75,355.45 793.75,793.75l0 8628.32c0,438.29 -355.45,793.74 -793.75,793.74l-24630.62 0.01c-438.29,-0.01 -793.74,-355.46 -793.74,-793.76l-0.01 -8628.31c0.01,-438.3 355.46,-793.75 793.76,-793.75z"/>
  <path id="Rectangle_x0020_41_x0020__x0028_1_x0029_.svg" class="fil1" d="M7642.81 3339.97l28019.11 0c438.3,0 793.75,355.45 793.75,793.75l0 9128.12c0,438.29 -355.45,793.74 -793.75,793.74l-28019.11 0.01c-438.29,-0.01 -793.74,-355.46 -793.74,-793.76l-0.01 -9128.11c0.01,-438.3 355.46,-793.75 793.76,-793.75z"/>
  <path id="Rectangle_x0020_37.svg" class="fil2" d="M6547.36 4751.09l30162.5 0c438.29,0 793.74,355.45 793.74,793.75l0.01 9128.12c-0.01,438.29 -355.46,793.74 -793.76,793.74l-30162.49 0.01c-438.29,-0.01 -793.74,-355.46 -793.74,-793.76l-0.01 -9128.11c0.01,-438.3 355.46,-793.75 793.76,-793.75z"/>
 </g>
</svg>
