<?xml version="1.0" encoding="UTF-8"?>
<!DOCTYPE svg PUBLIC "-//W3C//DTD SVG 1.1//EN" "http://www.w3.org/Graphics/SVG/1.1/DTD/svg11.dtd">
<!-- Creator: CorelDRAW 2018 (64-Bit) -->
<svg xmlns="http://www.w3.org/2000/svg" xml:space="preserve" width="147px" height="62px" version="1.1" style="shape-rendering:geometricPrecision; text-rendering:geometricPrecision; image-rendering:optimizeQuality; fill-rule:evenodd; clip-rule:evenodd"
viewBox="0 0 147 62.192"
 xmlns:xlink="http://www.w3.org/1999/xlink">
 <defs>
  <style type="text/css">
   <![CDATA[
    .fil0 {fill:#1F37FF}
    .fil1 {fill:#F5EDED;fill-rule:nonzero}
   ]]>
  </style>
 </defs>
 <g id="Слой_x0020_1">
  <metadata id="CorelCorpID_0Corel-Layer"/>
  <path class="fil0" d="M112.882 42.83c-21.166,22.968 -57.438,22.968 -78.604,0l-31.823 -34.535c-2.255,-2.446 -0.519,-6.404 2.806,-6.404l136.637 0c3.327,0 5.061,3.957 2.807,6.404l-31.823 34.535 0 0z"/>
  <g id="airplane.svg">
   <g id="surface1">
    <path class="fil1" d="M56.124 40.863l6.601 0.45 -1.073 0.942c-0.298,0.278 -0.33,0.721 -0.067,1.016l2.776 2.911c0.136,0.143 0.331,0.228 0.532,0.234 0.206,0.016 0.413,-0.048 0.571,-0.18l11.092 -9.766 -0.349 -1.674 -0.455 -2.241c-0.065,-0.298 0.139,-0.594 0.451,-0.663 0.203,-0.047 0.411,0.016 0.548,0.164 0.072,0.065 0.122,0.153 0.145,0.248l3.211 15.446c0.407,0.126 0.852,0.081 1.234,-0.121 0.524,-0.32 0.831,-1.109 0.924,-2.279l0.69 -18.712 0.021 -0.532c-0.001,-0.308 0.259,-0.565 0.585,-0.576 0.321,-0.009 0.583,0.231 0.586,0.539 -0.004,0.015 -0.002,0.029 -0.003,0.041l-0.077 1.797 -0.075 2.06 8.688 -7.645c2.511,-2.203 3.188,-5.284 1.543,-7.003 -0.906,-0.884 -2.228,-1.263 -3.526,-1.013 -1.456,0.24 -2.813,0.894 -3.896,1.877l-9.843 8.637 -13.694 -0.681c-1.718,-0.064 -2.941,0.335 -3.613,1.192 -0.546,0.786 -0.689,1.755 -0.397,2.634 0.077,0.217 0.263,0.39 0.496,0.455l9.948 2.764 -4.073 3.608 -8.532 0.613c-0.348,0.029 -0.644,0.272 -0.722,0.599l-0.918 3.972c-0.096,0.403 0.167,0.794 0.586,0.872 0.028,0.007 0.057,0.01 0.085,0.013l0 0.001 0 0.001zm0 0z"/>
   </g>
  </g>
 </g>
</svg>
