<?xml version="1.0" encoding="UTF-8"?>
<!DOCTYPE svg PUBLIC "-//W3C//DTD SVG 1.1//EN" "http://www.w3.org/Graphics/SVG/1.1/DTD/svg11.dtd">
<!-- Creator: CorelDRAW 2018 (64-Bit) -->
<svg xmlns="http://www.w3.org/2000/svg" xml:space="preserve" width="147px" height="62px" version="1.1" style="shape-rendering:geometricPrecision; text-rendering:geometricPrecision; image-rendering:optimizeQuality; fill-rule:evenodd; clip-rule:evenodd"
viewBox="0 0 147 62.192"
 xmlns:xlink="http://www.w3.org/1999/xlink"
 enable-background="new 0 0 512.004 512.004">
 <defs>
  <style type="text/css">
   <![CDATA[
    .fil0 {fill:#1F37FF}
    .fil1 {fill:white}
   ]]>
  </style>
 </defs>
 <g id="Слой_x0020_1">
  <metadata id="CorelCorpID_0Corel-Layer"/>
  <path class="fil0" d="M112.249 41.137c-20.738,22.506 -56.273,22.506 -77.009,0l-31.178 -33.838c-2.208,-2.396 -0.509,-6.274 2.75,-6.274l133.864 0c3.258,0 4.958,3.878 2.75,6.274l-31.177 33.838z"/>
  <g id="shuttle.svg">
   <path class="fil1" d="M69.404 22.997l-2.801 0.217c-0.78,0.06 -1.474,0.468 -1.905,1.12l-3.23 4.886c-0.327,0.494 -0.379,1.113 -0.139,1.655 0.24,0.542 0.733,0.92 1.318,1.01l2.565 0.397c0.6,-3.183 2.036,-6.359 4.192,-9.285z"/>
   <path class="fil1" d="M75.493 42.564l0.397 2.564c0.091,0.586 0.469,1.079 1.011,1.319 0.225,0.099 0.464,0.149 0.701,0.149 0.334,0 0.665,-0.098 0.954,-0.288l4.885 -3.23c0.653,-0.432 1.061,-1.126 1.121,-1.905l0.217 -2.801c-2.927,2.156 -6.102,3.592 -9.286,4.192l0 0z"/>
   <path class="fil1" d="M74.529 40.786c0.089,0 0.178,-0.007 0.268,-0.022 1.333,-0.223 2.619,-0.599 3.845,-1.09l-10.54 -10.541c-0.492,1.227 -0.867,2.512 -1.09,3.846 -0.088,0.526 0.088,1.061 0.465,1.439l5.881 5.881c0.313,0.313 0.736,0.487 1.171,0.487l0 0z"/>
   <path class="fil1" d="M90.931 28.6c2.579,-4.986 2.675,-10.256 2.54,-12.727 -0.046,-0.847 -0.721,-1.522 -1.568,-1.568 -0.402,-0.023 -0.879,-0.038 -1.417,-0.038 -2.763,0 -7.136,0.418 -11.311,2.578 -3.317,1.715 -7.667,5.494 -10.234,10.46 0.03,0.023 0.06,0.048 0.088,0.076l11.365 11.366c0.028,0.028 0.053,0.057 0.077,0.088 4.966,-2.567 8.744,-6.917 10.46,-10.235l0 0zm-10.954 -7.499c1.847,-1.846 4.851,-1.846 6.697,0 0.895,0.895 1.387,2.084 1.387,3.349 0,1.265 -0.492,2.454 -1.387,3.348 -0.923,0.924 -2.136,1.385 -3.348,1.385 -1.213,0 -2.425,-0.461 -3.349,-1.385 -0.894,-0.894 -1.387,-2.083 -1.387,-3.348 0,-1.265 0.493,-2.454 1.387,-3.349z"/>
   <path class="fil1" d="M81.317 26.459c1.108,1.108 2.91,1.108 4.018,0 0.537,-0.537 0.832,-1.25 0.832,-2.009 0,-0.759 -0.295,-1.473 -0.832,-2.009 -0.554,-0.554 -1.282,-0.831 -2.009,-0.831 -0.728,0 -1.455,0.277 -2.009,0.831 -0.537,0.536 -0.833,1.25 -0.833,2.009 0,0.759 0.296,1.472 0.833,2.009l0 0z"/>
   <path class="fil1" d="M62.147 40.909c0.242,0 0.484,-0.093 0.669,-0.278l3.092 -3.092c0.37,-0.37 0.37,-0.97 0,-1.339 -0.369,-0.37 -0.969,-0.37 -1.339,0l-3.092 3.092c-0.37,0.37 -0.37,0.969 0,1.339 0.185,0.185 0.427,0.278 0.67,0.278l0 0z"/>
   <path class="fil1" d="M68.742 39.034c-0.37,-0.37 -0.969,-0.37 -1.339,0l-5.945 5.945c-0.37,0.369 -0.37,0.969 0,1.339 0.184,0.185 0.427,0.277 0.669,0.277 0.243,0 0.485,-0.092 0.67,-0.277l5.945 -5.945c0.37,-0.37 0.37,-0.97 0,-1.34l0 0.001z"/>
   <path class="fil1" d="M70.237 41.867l-3.092 3.093c-0.371,0.369 -0.371,0.969 0,1.339 0.184,0.185 0.427,0.277 0.669,0.277 0.242,0 0.485,-0.092 0.67,-0.277l3.092 -3.092c0.37,-0.37 0.37,-0.97 0,-1.34 -0.37,-0.369 -0.97,-0.369 -1.339,0l0 0z"/>
  </g>
 </g>
</svg>
