<?xml version="1.0" encoding="UTF-8"?>
<!DOCTYPE svg PUBLIC "-//W3C//DTD SVG 1.1//EN" "http://www.w3.org/Graphics/SVG/1.1/DTD/svg11.dtd">
<!-- Creator: CorelDRAW 2018 (64-Bit) -->
<svg xmlns="http://www.w3.org/2000/svg" xml:space="preserve" width="147px" height="62px" version="1.1" style="shape-rendering:geometricPrecision; text-rendering:geometricPrecision; image-rendering:optimizeQuality; fill-rule:evenodd; clip-rule:evenodd"
viewBox="0 0 147 62.192"
 xmlns:xlink="http://www.w3.org/1999/xlink">
 <defs>
  <style type="text/css">
   <![CDATA[
    .fil0 {fill:#1F37FF}
    .fil1 {fill:#F2EDED}
   ]]>
  </style>
 </defs>
 <g id="Слой_x0020_1">
  <metadata id="CorelCorpID_0Corel-Layer"/>
  <path class="fil0" d="M112.064 43.755c-20.737,22.506 -56.272,22.506 -77.009,0l-31.178 -33.838c-2.208,-2.397 -0.508,-6.274 2.75,-6.274l133.864 0c3.259,0 4.958,3.877 2.75,6.274l-31.177 33.838z"/>
  <g id="jet.svg">
   <path class="fil1" d="M87.404 40.435l-1.208 -1.207 -1.38 1.38 -0.776 -10.092 -6.21 6.211 4.744 8.539 4.83 -4.831zm0 0z"/>
   <path class="fil1" d="M65.712 36.771l1.811 1.811 4.787 -4.788 1.207 1.208 -4.786 4.787 1.811 1.811 15.008 -15.009c2.203,-2.201 3.416,-5.129 3.416,-8.245 -3.115,0 -6.043,1.213 -8.246,3.416l-15.008 15.009zm18.673 -12.637l-3.623 3.622 -1.207 -1.207 3.622 -3.623 1.208 1.208zm0 0z"/>
   <path class="fil1" d="M76.796 23.271l-10.093 -0.776 1.38 -1.38 -1.208 -1.208 -4.83 4.83 8.54 4.745 6.211 -6.211zm0 0z"/>
   <path class="fil1" d="M74.311 40.247l-3.769 3.768 -1.811 -1.811 -1.666 1.665 3.623 3.623 4.83 -4.83 -1.207 -2.415zm0 0z"/>
   <path class="fil1" d="M64.65 31.794l-4.83 4.83 3.623 3.623 1.665 -1.665 -1.811 -1.811 3.769 -3.769 -2.416 -1.208zm0 0z"/>
  </g>
 </g>
</svg>
