<?xml version="1.0" encoding="UTF-8"?>
<!DOCTYPE svg PUBLIC "-//W3C//DTD SVG 1.1//EN" "http://www.w3.org/Graphics/SVG/1.1/DTD/svg11.dtd">
<!-- Creator: CorelDRAW 2018 (64-Bit) -->
<svg xmlns="http://www.w3.org/2000/svg" xml:space="preserve" width="52mm" height="22mm" version="1.1" style="shape-rendering:geometricPrecision; text-rendering:geometricPrecision; image-rendering:optimizeQuality; fill-rule:evenodd; clip-rule:evenodd"
viewBox="0 0 5200 2200"
 xmlns:xlink="http://www.w3.org/1999/xlink">
 <defs>
  <style type="text/css">
   <![CDATA[
    .fil0 {fill:#1F37FF}
    .fil1 {fill:white}
   ]]>
  </style>
 </defs>
 <g id="Слой_x0020_1">
  <metadata id="CorelCorpID_0Corel-Layer"/>
  <path class="fil0" d="M-1898.47 -7822.69c-733.56,796.13 -1990.59,796.13 -2724.13,0l-1102.89 -1196.98c-78.1,-84.77 -17.98,-221.94 97.29,-221.94l4735.31 0c115.28,0.01 175.39,137.17 97.28,221.94l-1102.86 1196.98z"/>
  <g id="hearts.svg">
   <path class="fil1" d="M-3233.43 -7997.65c-40.77,-45.56 -63.23,-104.34 -63.23,-165.53 0,-136.89 111.37,-248.26 248.27,-248.26 57.42,0 111.96,19.84 155.32,54.62 43.36,-34.78 97.91,-54.62 155.33,-54.62 4.27,0 8.5,0.11 12.71,0.32 -3.36,-163.3 -137.23,-295.11 -301.31,-295.11 -91.77,0 -177.48,41.76 -234.16,111.67 -56.67,-69.91 -142.38,-111.67 -234.15,-111.67 -166.2,0 -301.4,135.21 -301.4,301.4 0,74.28 27.26,145.64 76.75,200.94 49.39,55.18 458.79,442.91 458.79,442.91 0,0 72.28,-66.02 136.67,-127.8 -51.07,-49.54 -96.28,-93.99 -109.59,-108.87z"/>
   <path class="fil1" d="M-2893.07 -7767.27c0.01,0 254.26,-242.58 286.47,-278.58 27.87,-31.13 44.81,-72.23 44.81,-117.3 0,-97.17 -78.78,-175.94 -175.95,-175.94 -66.49,0 -124.34,36.9 -154.26,91.32l-2.14 0c-29.92,-54.42 -87.76,-91.32 -154.26,-91.32 -97.17,0 -175.94,78.77 -175.94,175.94 0,45.07 16.94,86.17 44.8,117.3 32.22,36 286.46,278.58 286.47,278.58z"/>
  </g>
 </g>
 <g id="Слой_x0020_1_0">
  <metadata id="CorelCorpID_1Corel-Layer"/>
  <path class="fil0" d="M3964.12 1511.61c-733.56,796.13 -1990.59,796.13 -2724.13,0l-1102.89 -1196.98c-78.1,-84.77 -17.98,-221.94 97.29,-221.94l4735.31 0c115.28,0.01 175.39,137.17 97.28,221.94l-1102.86 1196.98z"/>
  <g id="hearts.svg_1">
   <path class="fil1" d="M2629.16 1336.65c-40.77,-45.56 -63.23,-104.34 -63.23,-165.53 0,-136.89 111.37,-248.26 248.27,-248.26 57.42,0 111.96,19.84 155.32,54.62 43.36,-34.78 97.91,-54.62 155.33,-54.62 4.27,0 8.5,0.11 12.71,0.32 -3.36,-163.3 -137.23,-295.11 -301.31,-295.11 -91.77,0 -177.48,41.76 -234.16,111.67 -56.67,-69.91 -142.38,-111.67 -234.15,-111.67 -166.2,0 -301.4,135.21 -301.4,301.4 0,74.28 27.26,145.64 76.75,200.94 49.39,55.18 458.79,442.91 458.79,442.91 0,0 72.28,-66.02 136.67,-127.8 -51.07,-49.54 -96.28,-93.99 -109.59,-108.87z"/>
   <path class="fil1" d="M2969.52 1567.03c0.01,0 254.26,-242.58 286.47,-278.58 27.87,-31.13 44.81,-72.23 44.81,-117.3 0,-97.17 -78.78,-175.94 -175.95,-175.94 -66.49,0 -124.34,36.9 -154.26,91.32l-2.14 0c-29.92,-54.42 -87.76,-91.32 -154.26,-91.32 -97.17,0 -175.94,78.77 -175.94,175.94 0,45.07 16.94,86.17 44.8,117.3 32.22,36 286.46,278.58 286.47,278.58z"/>
  </g>
 </g>
</svg>
