<?xml version="1.0" encoding="UTF-8"?>
<!DOCTYPE svg PUBLIC "-//W3C//DTD SVG 1.1//EN" "http://www.w3.org/Graphics/SVG/1.1/DTD/svg11.dtd">
<!-- Creator: CorelDRAW 2018 (64-Bit) -->
<svg xmlns="http://www.w3.org/2000/svg" xml:space="preserve" width="52mm" height="22mm" version="1.1" style="shape-rendering:geometricPrecision; text-rendering:geometricPrecision; image-rendering:optimizeQuality; fill-rule:evenodd; clip-rule:evenodd"
viewBox="0 0 5200 2200"
 xmlns:xlink="http://www.w3.org/1999/xlink">
 <defs>
  <style type="text/css">
   <![CDATA[
    .fil2 {fill:none}
    .fil0 {fill:#1F37FF}
    .fil1 {fill:white}
   ]]>
  </style>
   <clipPath id="id0">
    <path d="M2101.75 1568.95l1005.4 0 0 -1005.4 -1005.4 0 0 1005.4z"/>
   </clipPath>
 </defs>
 <g id="Слой_x0020_1">
  <metadata id="CorelCorpID_0Corel-Layer"/>
  <path class="fil0" d="M3960.72 1500.15c-733.56,796.13 -1990.59,796.13 -2724.13,0l-1102.89 -1196.98c-78.1,-84.77 -17.98,-221.94 97.29,-221.94l4735.31 0c115.28,0.01 175.39,137.17 97.28,221.94l-1102.86 1196.98z"/>
  <g id="_1677147283488">
  </g>
  <g>
  </g>
  <g style="clip-path:url(#id0)">
   <g>
    <path class="fil1" d="M2979.34 1152.2c-11.52,-149.94 -81.33,-243.91 -142.92,-326.83 -57.03,-76.76 -106.29,-143.06 -106.29,-240.84 0,-7.86 -4.4,-15.04 -11.37,-18.64 -7,-3.62 -15.4,-3.03 -21.76,1.6 -92.5,66.19 -169.68,177.74 -196.64,284.18 -18.72,74.11 -21.19,157.42 -21.54,212.44 -85.42,-18.25 -104.77,-146.02 -104.98,-147.41 -0.96,-6.63 -5.01,-12.4 -10.9,-15.55 -5.95,-3.11 -12.95,-3.34 -18.98,-0.35 -4.48,2.17 -109.95,55.76 -116.09,269.73 -0.43,7.12 -0.45,14.25 -0.45,21.39 0,207.88 169.15,377.01 377.03,377.01 0.29,0.02 0.6,0.06 0.84,0 0.09,0 0.17,0 0.27,0 207.38,-0.59 375.93,-169.5 375.93,-377.01 0,-10.45 -2.15,-39.72 -2.15,-39.72zm-374.89 374.84c-69.3,0 -125.67,-60.05 -125.67,-133.87 0,-2.52 -0.02,-5.05 0.16,-8.16 0.84,-31.13 6.75,-52.38 13.24,-66.52 12.15,26.1 33.87,50.1 69.16,50.1 11.57,0 20.94,-9.37 20.94,-20.95 0,-29.82 0.62,-64.22 8.04,-95.28 6.61,-27.53 22.4,-56.82 42.41,-80.3 8.89,30.48 26.24,55.15 43.18,79.22 24.24,34.44 49.29,70.06 53.7,130.78 0.26,3.6 0.53,7.22 0.53,11.11 -0.01,73.82 -56.38,133.87 -125.69,133.87z"/>
   </g>
  </g>
  <polygon class="fil2" points="2101.75,1568.95 3107.15,1568.95 3107.15,563.55 2101.75,563.55 "/>
  <polygon class="fil2" points="2101.75,1568.95 3107.15,1568.95 3107.15,563.55 2101.75,563.55 "/>
 </g>
</svg>
